M48
;Layer_Color=9474304
;FILE_FORMAT=4:4
METRIC
;TYPE=PLATED
T1F00S00C0.9000
T2F00S00C1.0000
T3F00S00C1.1000
T4F00S00C1.3000
%
T01
X00940000Y00520000
Y00540000
Y00560000
Y00580000
Y00600000
X00960000
X00960000Y00580000
Y00560000
Y00540000
Y00520000
Y00620000
Y00640000
Y00660000
X00940000
X00940000Y00640000
X00940000Y00620000
Y00680000
X00960000
X00760000Y00680000
Y00660000
X00740000
X00740000Y00680000
Y00640000
Y00620000
Y00600000
Y00580000
Y00560000
Y00540000
Y00520000
X00760000
Y00540000
Y00560000
Y00580000
Y00600000
Y00620000
Y00640000
T02
X00580000Y00370000
Y00395400
X00605400
Y00370000
X00630800
Y00395400
X00656200
Y00370000
X00681600
Y00395400
X00800000
Y00370000
X00825400
Y00395400
X00850800
Y00370000
X00876200
Y00395400
X00901600
Y00370000
X01020000
Y00395400
X01045400
Y00370000
X01070800
Y00395400
X01096200
Y00370000
X01121600
Y00395400
X01115000Y00538400
X01140400
Y00563800
X01115000
Y00589200
X01140400
Y00614600
X01115000
Y00640000
X01140400
T03
X00740000Y00385000
X00963000
X01150000Y00450000
X00610000Y00520000
X00600000Y00610000
T04
X00564000Y00574000
Y00624000
M30
