G04 Layer_Physical_Order=2*
G04 Layer_Color=16711680*
%FSAX44Y44*%
%MOMM*%
G71*
G01*
G75*
%ADD12R,2.5000X2.5000*%
%ADD13R,2.0000X2.0000*%
%ADD14R,2.0000X2.0000*%
%ADD15R,1.6000X1.6000*%
%ADD16C,3.0000*%
%ADD17R,1.4000X1.2000*%
%ADD18C,1.0000*%
%ADD19C,0.5000*%
%ADD20R,3.4000X4.1000*%
%ADD21R,3.4000X4.2000*%
%ADD22R,9.5000X2.0000*%
%ADD23R,9.5000X2.0000*%
G36*
X01164927Y00592957D02*
Y00355073D01*
X01040000D01*
Y00375400D01*
X01141600D01*
Y00415400D01*
X01136673D01*
Y00483400D01*
X01136383Y00486340D01*
X01135525Y00489168D01*
X01134132Y00491774D01*
X01132258Y00494058D01*
X01132258Y00494058D01*
X01109089Y00517227D01*
X01109575Y00518400D01*
X01135000D01*
Y00543800D01*
X01160400D01*
Y00569200D01*
Y00595825D01*
X01161573Y00596311D01*
X01164927Y00592957D01*
D02*
G37*
G36*
X00707438Y00563754D02*
X00571246Y00427562D01*
X00570073Y00428048D01*
Y00551500D01*
X00586500D01*
Y00564927D01*
X00706952D01*
X00707438Y00563754D01*
D02*
G37*
G36*
X00784927Y00471952D02*
Y00415400D01*
X00780000D01*
Y00375400D01*
Y00355073D01*
X00600000D01*
Y00375400D01*
X00701600D01*
Y00390284D01*
X00783754Y00472438D01*
X00784927Y00471952D01*
D02*
G37*
G36*
X01004927Y00463757D02*
Y00415400D01*
X01000000D01*
Y00375400D01*
Y00355073D01*
X00820000D01*
Y00375400D01*
X00921600D01*
Y00415400D01*
X00920073D01*
Y00488757D01*
X00933316Y00502000D01*
X00966684D01*
X01004927Y00463757D01*
D02*
G37*
G36*
X01079742Y00603942D02*
X01082026Y00602068D01*
X01084632Y00600675D01*
X01087459Y00599817D01*
X01090400Y00599527D01*
X01095000D01*
Y00594600D01*
Y00567975D01*
X01093827Y00567489D01*
X01065072Y00596243D01*
Y00608760D01*
X01074924D01*
X01079742Y00603942D01*
D02*
G37*
G36*
X01185000Y00739000D02*
Y00617175D01*
X01183827Y00616689D01*
X01175258Y00625258D01*
X01172974Y00627132D01*
X01170368Y00628525D01*
X01167541Y00629383D01*
X01164600Y00629673D01*
X01160400D01*
Y00634600D01*
X01135000D01*
Y00660000D01*
X01095000D01*
Y00652608D01*
X01087000D01*
Y00671240D01*
X01065072D01*
Y00700000D01*
X01064783Y00702940D01*
X01063925Y00705768D01*
X01062532Y00708374D01*
X01060658Y00710658D01*
X01060658Y00710658D01*
X01058374Y00712532D01*
X01055768Y00713925D01*
X01052940Y00714783D01*
X01050000Y00715073D01*
X00920000D01*
X00917059Y00714783D01*
X00914232Y00713925D01*
X00911626Y00712532D01*
X00909342Y00710658D01*
X00907468Y00708374D01*
X00906075Y00705768D01*
X00905217Y00702941D01*
X00904927Y00700000D01*
Y00640000D01*
X00905217Y00637060D01*
X00906075Y00634232D01*
X00907468Y00631626D01*
X00909342Y00629342D01*
X00911626Y00627468D01*
X00914232Y00626075D01*
X00917059Y00625217D01*
X00920000Y00624927D01*
X00922000D01*
Y00615073D01*
X00910000D01*
X00907059Y00614783D01*
X00904232Y00613925D01*
X00901626Y00612532D01*
X00899342Y00610658D01*
X00796246Y00507562D01*
X00795073Y00508048D01*
Y00535000D01*
X00794783Y00537940D01*
X00793925Y00540768D01*
X00792532Y00543374D01*
X00790658Y00545658D01*
X00785658Y00550658D01*
X00783374Y00552532D01*
X00780768Y00553925D01*
X00778000Y00554765D01*
Y00558000D01*
Y00578000D01*
X00758000D01*
Y00582000D01*
X00778000D01*
Y00602000D01*
Y00622000D01*
Y00642000D01*
Y00662000D01*
Y00698000D01*
X00742000D01*
Y00678000D01*
X00722000D01*
Y00675073D01*
X00712900D01*
X00712086Y00676000D01*
Y00718000D01*
X00711743Y00720611D01*
X00710735Y00723043D01*
X00709132Y00725132D01*
X00707043Y00726735D01*
X00704611Y00727743D01*
X00702000Y00728086D01*
X00668000D01*
X00665389Y00727743D01*
X00662957Y00726735D01*
X00660868Y00725132D01*
X00659417Y00723241D01*
X00658592Y00723076D01*
X00657917Y00723109D01*
X00657132Y00724132D01*
X00655043Y00725735D01*
X00652611Y00726743D01*
X00650000Y00727086D01*
X00616000D01*
X00613390Y00726743D01*
X00610957Y00725735D01*
X00608868Y00724132D01*
X00607265Y00722043D01*
X00606257Y00719611D01*
X00606206Y00719222D01*
X00604925D01*
X00604743Y00720611D01*
X00603735Y00723043D01*
X00602132Y00725132D01*
X00600043Y00726735D01*
X00597611Y00727743D01*
X00595000Y00728086D01*
X00561000D01*
X00558389Y00727743D01*
X00555957Y00726735D01*
X00553868Y00725132D01*
X00552265Y00723043D01*
X00551257Y00720611D01*
X00550914Y00718000D01*
Y00677000D01*
X00551257Y00674389D01*
X00552265Y00671957D01*
X00553868Y00669868D01*
X00555957Y00668265D01*
X00558389Y00667257D01*
X00561000Y00666914D01*
X00568170D01*
X00568468Y00666356D01*
X00570342Y00664072D01*
X00638168Y00596246D01*
X00637682Y00595073D01*
X00586500D01*
Y00596500D01*
X00541500D01*
Y00572564D01*
X00541075Y00571768D01*
X00540217Y00568941D01*
X00539927Y00566000D01*
Y00340000D01*
X00540217Y00337060D01*
X00540532Y00336020D01*
X00539776Y00335000D01*
X00530000D01*
Y00739101D01*
X00530899Y00739999D01*
X01185000Y00739000D01*
D02*
G37*
G36*
X01034927Y00671240D02*
X01033000D01*
Y00652608D01*
X00978000D01*
Y00678000D01*
X00978000D01*
Y00684927D01*
X01034927D01*
Y00671240D01*
D02*
G37*
G36*
X01033000Y00608760D02*
X01034927D01*
Y00593048D01*
X01033754Y00592562D01*
X01015658Y00610658D01*
X01013374Y00612532D01*
X01010768Y00613925D01*
X01007941Y00614783D01*
X01005000Y00615073D01*
X00978000D01*
Y00627392D01*
X01033000D01*
Y00608760D01*
D02*
G37*
G36*
X00613390Y00666257D02*
X00616000Y00665914D01*
X00622771D01*
X00659342Y00629342D01*
X00661626Y00627468D01*
X00664232Y00626075D01*
X00667059Y00625217D01*
X00670000Y00624927D01*
X00722000D01*
Y00615073D01*
X00661973D01*
X00611296Y00665750D01*
X00612015Y00666827D01*
X00613390Y00666257D01*
D02*
G37*
D12*
X00564000Y00574000D02*
D03*
Y00624000D02*
D03*
D13*
X00580000Y00370000D02*
D03*
X00605400D02*
D03*
X00630800D02*
D03*
X00656200D02*
D03*
X00681600D02*
D03*
Y00395400D02*
D03*
X00656200D02*
D03*
X00630800D02*
D03*
X00605400D02*
D03*
X00580000D02*
D03*
X00800000Y00370000D02*
D03*
X00825400D02*
D03*
X00850800D02*
D03*
X00876200D02*
D03*
X00901600D02*
D03*
Y00395400D02*
D03*
X00876200D02*
D03*
X00850800D02*
D03*
X00825400D02*
D03*
X00800000D02*
D03*
X01020000Y00370000D02*
D03*
X01045400D02*
D03*
X01070800D02*
D03*
X01096200D02*
D03*
X01121600D02*
D03*
Y00395400D02*
D03*
X01096200D02*
D03*
X01070800D02*
D03*
X01045400D02*
D03*
X01020000D02*
D03*
D14*
X01115000Y00538400D02*
D03*
X01140400D02*
D03*
Y00563800D02*
D03*
Y00589200D02*
D03*
Y00614600D02*
D03*
Y00640000D02*
D03*
X01115000D02*
D03*
Y00614600D02*
D03*
Y00589200D02*
D03*
Y00563800D02*
D03*
D15*
X00740000Y00520000D02*
D03*
X00760000D02*
D03*
Y00540000D02*
D03*
X00740000D02*
D03*
Y00560000D02*
D03*
Y00580000D02*
D03*
X00760000D02*
D03*
Y00560000D02*
D03*
Y00600000D02*
D03*
X00740000D02*
D03*
Y00620000D02*
D03*
X00760000D02*
D03*
Y00640000D02*
D03*
X00740000D02*
D03*
X00740000Y00660000D02*
D03*
X00760000D02*
D03*
Y00680000D02*
D03*
X00740000D02*
D03*
X00940000Y00520000D02*
D03*
X00960000D02*
D03*
Y00540000D02*
D03*
X00940000D02*
D03*
Y00560000D02*
D03*
Y00580000D02*
D03*
X00960000D02*
D03*
Y00560000D02*
D03*
X00960000Y00600000D02*
D03*
X00940000D02*
D03*
Y00620000D02*
D03*
X00960000D02*
D03*
Y00640000D02*
D03*
Y00660000D02*
D03*
X00940000D02*
D03*
X00940000Y00640000D02*
D03*
X00940000Y00680000D02*
D03*
X00960000D02*
D03*
D16*
X00610000Y00520000D02*
D03*
X00600000Y00610000D02*
D03*
X00740000Y00385000D02*
D03*
X00963000D02*
D03*
X01150000Y00450000D02*
D03*
D17*
X01050000Y00624760D02*
D03*
X01070000D02*
D03*
Y00655240D02*
D03*
X01050000D02*
D03*
D18*
X00555000Y00340000D02*
Y00566000D01*
X00569000Y00580000D01*
X00740000D01*
Y00560000D02*
X00725000D01*
X00580000Y00415000D01*
Y00395400D01*
Y00370000D02*
Y00340000D01*
X00800000D01*
Y00370000D01*
Y00340000D02*
X01020000D01*
X01180000D01*
Y00599200D01*
X01164600Y00614600D01*
X01140400D01*
X01115000D02*
X01090400D01*
X01080240Y00624760D01*
X01070000D01*
Y00655240D02*
X01050000D01*
Y00700000D01*
X01050000Y00700000D01*
X00920000D01*
Y00640000D01*
X00940000D01*
Y00600000D02*
X00910000D01*
X00800000Y00490000D01*
Y00395400D01*
X00825400D02*
Y00490400D01*
X00915000Y00580000D01*
X00940000D01*
X00960000D02*
X00990000D01*
X01096200Y00473800D01*
Y00395400D01*
X01121600D02*
Y00483400D01*
X01005000Y00600000D01*
X00960000D01*
X00960000Y00560000D02*
X00980000D01*
X01070800Y00469200D01*
Y00395400D01*
X01045400D02*
Y00469600D01*
X00975000Y00540000D01*
X00965000D01*
X00960000Y00520000D02*
X00970000D01*
X01020000Y00470000D01*
Y00395400D01*
Y00370000D02*
Y00340000D01*
X00901600Y00395400D02*
X00905000Y00398800D01*
Y00495000D01*
X00930000Y00520000D01*
X00940000D01*
X00935000Y00540000D02*
X00925000D01*
X00876200Y00491200D01*
Y00395400D01*
X00850800D02*
Y00490800D01*
X00920000Y00560000D01*
X00940000D01*
X01050000Y00590000D02*
X01101600Y00538400D01*
X01115000D01*
X01050000Y00590000D02*
Y00624760D01*
X00775000Y00540000D02*
X00780000Y00535000D01*
Y00490000D01*
X00685400Y00395400D01*
X00681600D01*
X00656200D02*
Y00401200D01*
X00760000Y00505000D01*
Y00520000D01*
X00740000D02*
X00630800Y00410800D01*
Y00395400D01*
X00605400Y00415400D02*
X00730000Y00540000D01*
X00740000D01*
X00760000D02*
X00775000D01*
X00740000Y00600000D02*
X00655730D01*
X00581000Y00674730D01*
Y00682000D01*
X00622000D02*
X00628000D01*
X00670000Y00640000D01*
X00740000D01*
X00740000Y00660000D02*
X00698000D01*
X00689000Y00669000D01*
Y00681000D01*
X00605400Y00415400D02*
Y00395400D01*
X00580000Y00340000D02*
X00555000D01*
D19*
X00960000Y00640000D02*
X01115000D01*
D20*
X00633000Y00696500D02*
D03*
X00578000Y00697500D02*
D03*
D21*
X00685000Y00697000D02*
D03*
D22*
X00642500Y00370000D02*
D03*
D23*
X00862500Y00370000D02*
D03*
X01082500D02*
D03*
M02*
