M48
;Layer_Color=9474304
;FILE_FORMAT=4:4
METRIC
;TYPE=PLATED
T1F00S00C1.1000
T2F00S00C1.3000
%
T01
X00494480Y00332260
X00714480
X00909480
X01179480
X01399480
X01594480
X01864480
X02084480
X02279480
Y00767260
X02084480
X01864480
X01969480Y00623260
X01594480Y00767260
X01399480
X01284480Y00623260
X01179480Y00767260
X00909480
X00714480
X00494480
X00599480Y00623260
Y01058260
X01284480
X01969480
T02
X01688480Y00541260
Y00591260
X01003480
Y00541260
X00318480
Y00591260
Y00976260
Y01026260
X01003480
Y00976260
X01688480
Y01026260
M30
