G04 Layer_Physical_Order=1*
G04 Layer_Color=255*
%FSAX44Y44*%
%MOMM*%
G71*
G01*
G75*
%ADD10R,1.4000X1.2000*%
%ADD11R,3.3000X1.5000*%
%ADD12R,2.0000X5.0800*%
%ADD13R,5.0800X2.0000*%
%ADD14C,0.6000*%
%ADD15C,1.0000*%
%ADD16R,3.1000X1.2000*%
%ADD17R,9.0000X2.0000*%
%ADD18R,8.5000X2.0000*%
%ADD19R,2.5000X2.5000*%
%ADD20C,3.0000*%
G36*
X00903500Y00511941D02*
Y00502500D01*
X00915929D01*
Y00491200D01*
X00890271D01*
Y00500372D01*
X00902327Y00512427D01*
X00903500Y00511941D01*
D02*
G37*
G36*
X01029200Y00647998D02*
Y00639600D01*
Y00614200D01*
Y00612359D01*
X01028027Y00611873D01*
X01024071Y00615828D01*
Y00649130D01*
X01025341Y00649596D01*
X01029200Y00647998D01*
D02*
G37*
G36*
X01185000Y00675308D02*
X01183944Y00674602D01*
X01180000Y00676236D01*
X01176200D01*
Y00679600D01*
X01105400D01*
Y00639600D01*
Y00614200D01*
Y00588800D01*
X01163764D01*
Y00356236D01*
X01040000D01*
Y00415000D01*
X01000000D01*
Y00356236D01*
X00820000D01*
Y00415000D01*
X00780000D01*
Y00356236D01*
X00600000D01*
Y00415000D01*
X00571236D01*
Y00420400D01*
X00701600D01*
Y00455900D01*
X00706628Y00460929D01*
X00765000D01*
X00774950Y00465050D01*
X00778827Y00468927D01*
X00780000Y00468441D01*
Y00420400D01*
X00921600D01*
Y00455900D01*
X00939950Y00474250D01*
X00944071Y00484200D01*
Y00502500D01*
X00967600D01*
X01000000Y00470101D01*
Y00420400D01*
X01141600D01*
Y00491200D01*
X01135671D01*
Y00503400D01*
X01131550Y00513350D01*
X01082673Y00562227D01*
X01083159Y00563400D01*
X01100000D01*
Y00588800D01*
Y00614200D01*
Y00639600D01*
Y00665000D01*
Y00705000D01*
X01042000D01*
Y00716240D01*
X01027075D01*
X01020240Y00719071D01*
X00900000D01*
X00890050Y00714950D01*
X00885050Y00709950D01*
X00880929Y00700000D01*
Y00650000D01*
X00885050Y00640050D01*
X00895050Y00630050D01*
X00903500Y00626550D01*
Y00613450D01*
X00895050Y00609950D01*
X00810244Y00525144D01*
X00809071Y00525630D01*
Y00540000D01*
X00804950Y00549950D01*
X00796500Y00553450D01*
Y00577500D01*
X00756500D01*
Y00582500D01*
X00796500D01*
Y00602500D01*
Y00622500D01*
Y00642500D01*
Y00662500D01*
Y00697500D01*
X00743500D01*
Y00677500D01*
X00703500D01*
Y00642500D01*
Y00622500D01*
Y00602500D01*
Y00596236D01*
X00586500D01*
Y00596500D01*
X00541500D01*
Y00572605D01*
X00538764Y00566000D01*
Y00340000D01*
X00540398Y00336056D01*
X00539692Y00335000D01*
X00530000D01*
Y00740000D01*
X01185000D01*
Y00675308D01*
D02*
G37*
D10*
X01010000Y00669760D02*
D03*
X01025000D02*
D03*
Y00700240D02*
D03*
X01010000D02*
D03*
D11*
X00730000Y00520000D02*
D03*
Y00540000D02*
D03*
Y00560000D02*
D03*
Y00580000D02*
D03*
Y00600000D02*
D03*
Y00620000D02*
D03*
Y00640000D02*
D03*
Y00660000D02*
D03*
X00730000Y00680000D02*
D03*
X00770000Y00620000D02*
D03*
Y00600000D02*
D03*
Y00580000D02*
D03*
Y00560000D02*
D03*
Y00540000D02*
D03*
Y00520000D02*
D03*
Y00640000D02*
D03*
Y00660000D02*
D03*
Y00680000D02*
D03*
X00930000Y00520000D02*
D03*
Y00540000D02*
D03*
Y00560000D02*
D03*
Y00580000D02*
D03*
Y00600000D02*
D03*
Y00620000D02*
D03*
Y00640000D02*
D03*
Y00660000D02*
D03*
X00930000Y00680000D02*
D03*
X00970000Y00620000D02*
D03*
Y00600000D02*
D03*
Y00580000D02*
D03*
Y00560000D02*
D03*
Y00540000D02*
D03*
Y00520000D02*
D03*
Y00640000D02*
D03*
Y00660000D02*
D03*
Y00680000D02*
D03*
D12*
X00580000Y00379600D02*
D03*
X00605400D02*
D03*
X00630800D02*
D03*
X00656200D02*
D03*
X00681600D02*
D03*
Y00455800D02*
D03*
X00656200D02*
D03*
X00630800D02*
D03*
X00605400D02*
D03*
X00580000D02*
D03*
X00800000Y00379600D02*
D03*
X00825400D02*
D03*
X00850800D02*
D03*
X00876200D02*
D03*
X00901600D02*
D03*
Y00455800D02*
D03*
X00876200D02*
D03*
X00850800D02*
D03*
X00825400D02*
D03*
X00800000D02*
D03*
X01020000Y00379600D02*
D03*
X01045400D02*
D03*
X01070800D02*
D03*
X01096200D02*
D03*
X01121600D02*
D03*
Y00455800D02*
D03*
X01096200D02*
D03*
X01070800D02*
D03*
X01045400D02*
D03*
X01020000D02*
D03*
D13*
X01064600Y00583400D02*
D03*
Y00608800D02*
D03*
Y00634200D02*
D03*
Y00659600D02*
D03*
Y00685000D02*
D03*
X01140800Y00608800D02*
D03*
Y00583400D02*
D03*
Y00634200D02*
D03*
Y00659600D02*
D03*
Y00685000D02*
D03*
D14*
X00580000Y00455800D02*
Y00540000D01*
X00600000Y00560000D01*
X00730000D01*
Y00540000D02*
X00625000D01*
X00605400Y00520400D01*
Y00455800D01*
X00630800D02*
Y00515800D01*
X00635000Y00520000D01*
X00730000D01*
X00700800Y00475000D02*
X00765000D01*
X00795000Y00505000D01*
Y00540000D01*
X00770000D01*
Y00520000D02*
Y00505000D01*
X00765000Y00500000D01*
X00665000D01*
X00655000Y00490000D01*
Y00455800D01*
X00681600D02*
X00700800Y00475000D01*
X00800000Y00455800D02*
X00807000Y00462800D01*
Y00502000D01*
X00905000Y00600000D01*
X00930000D01*
Y00580000D02*
X00905000D01*
X00830000Y00505000D01*
Y00460400D01*
X00825400Y00455800D01*
X00850800D02*
Y00505800D01*
X00905000Y00560000D01*
X00930000D01*
Y00540000D02*
X00910000D01*
X00876200Y00506200D01*
Y00455800D01*
X00901600D02*
X00930000Y00484200D01*
Y00520000D01*
X00970000D02*
X01020000Y00470000D01*
Y00455800D01*
X01045400D02*
X01042000Y00459200D01*
Y00483000D01*
X00985000Y00540000D01*
X00970000D01*
Y00560000D02*
X00985000D01*
X01025000Y00520000D01*
X01038000D01*
X01070800Y00487200D01*
Y00455800D01*
X01096200D02*
Y00493800D01*
X01053000Y00537000D01*
X01033000D01*
X00990000Y00580000D01*
X00970000D01*
X00995000Y00600000D02*
X01040000Y00555000D01*
X01070000D01*
X01121600Y00503400D01*
Y00455800D01*
X01064600Y00583400D02*
X01036600D01*
X01010000Y00610000D01*
Y00669760D01*
X00995000Y00685000D02*
X01064600D01*
Y00659600D02*
X01035160D01*
X01025000Y00669760D01*
Y00700240D02*
X01020240Y00705000D01*
X00900000D01*
X00895000Y00700000D01*
Y00650000D01*
X00905000Y00640000D01*
X00930000D01*
X00970000Y00600000D02*
X00995000D01*
Y00645000D02*
Y00685000D01*
Y00645000D02*
X00990000Y00640000D01*
X00970000D01*
D15*
X00555000Y00340000D02*
X00580000D01*
Y00370000D01*
Y00340000D02*
X00800000D01*
X01020000D01*
Y00370000D01*
Y00340000D02*
X01180000D01*
Y00660000D01*
X01141200D01*
X01140800Y00659600D01*
X00800000Y00370000D02*
Y00340000D01*
X00740000Y00580000D02*
X00569000D01*
X00555000Y00566000D01*
Y00340000D01*
D16*
X01017500Y00701000D02*
D03*
D17*
X00640000Y00370000D02*
D03*
X00860000D02*
D03*
D18*
X01082500Y00370000D02*
D03*
D19*
X00564000Y00574000D02*
D03*
Y00624000D02*
D03*
D20*
X00740000Y00365000D02*
D03*
X00960000D02*
D03*
X01155000D02*
D03*
X00845000Y00656000D02*
D03*
M02*
