G04 Layer_Physical_Order=1*
G04 Layer_Color=255*
%FSAX44Y44*%
%MOMM*%
G71*
G01*
G75*
%ADD10R,9.0000X2.0000*%
%ADD11R,8.5000X2.0000*%
%ADD12R,2.5000X2.5000*%
%ADD13R,2.0000X2.0000*%
%ADD14R,2.0000X2.0000*%
%ADD15R,1.6000X1.6000*%
%ADD16C,3.0000*%
G36*
X01185000Y00335000D02*
X00530000D01*
Y00740000D01*
X01185000D01*
Y00335000D01*
D02*
G37*
%LPC*%
G36*
X01141600Y00415400D02*
X01000000D01*
Y00375400D01*
Y00350000D01*
X01040000D01*
Y00375400D01*
X01141600D01*
Y00415400D01*
D02*
G37*
G36*
X00921600D02*
X00780000D01*
Y00375400D01*
Y00350000D01*
X00820000D01*
Y00375400D01*
X00921600D01*
Y00415400D01*
D02*
G37*
G36*
X00701600D02*
X00560000D01*
Y00375400D01*
Y00350000D01*
X00600000D01*
Y00375400D01*
X00701600D01*
Y00415400D01*
D02*
G37*
G36*
X01135000Y00660000D02*
X01095000D01*
Y00620000D01*
Y00594600D01*
Y00569200D01*
Y00543800D01*
Y00518400D01*
X01135000D01*
Y00543800D01*
X01160400D01*
Y00569200D01*
Y00594600D01*
Y00634600D01*
X01135000D01*
Y00660000D01*
D02*
G37*
G36*
X00586500Y00596500D02*
X00541500D01*
Y00551500D01*
X00586500D01*
Y00596500D01*
D02*
G37*
G36*
X00778000Y00698000D02*
X00742000D01*
Y00678000D01*
X00722000D01*
Y00658000D01*
X00722000D01*
Y00622000D01*
Y00602000D01*
Y00582000D01*
Y00562000D01*
Y00542000D01*
Y00522000D01*
Y00502000D01*
X00778000D01*
Y00522000D01*
Y00542000D01*
Y00578000D01*
X00758000D01*
Y00582000D01*
X00778000D01*
Y00602000D01*
Y00622000D01*
Y00642000D01*
Y00662000D01*
Y00698000D01*
D02*
G37*
G36*
X00978000Y00698000D02*
X00922000D01*
Y00662000D01*
Y00642000D01*
X00922000D01*
Y00638000D01*
X00922000D01*
Y00602000D01*
Y00582000D01*
Y00562000D01*
Y00542000D01*
Y00522000D01*
Y00502000D01*
X00978000D01*
Y00522000D01*
Y00542000D01*
Y00562000D01*
Y00598000D01*
X00978000D01*
Y00602000D01*
X00978000D01*
Y00622000D01*
Y00642000D01*
Y00678000D01*
X00978000D01*
Y00698000D01*
D02*
G37*
%LPD*%
D10*
X00640000Y00370000D02*
D03*
X00860000D02*
D03*
D11*
X01082500Y00370000D02*
D03*
D12*
X00564000Y00574000D02*
D03*
Y00624000D02*
D03*
D13*
X00580000Y00370000D02*
D03*
X00605400D02*
D03*
X00630800D02*
D03*
X00656200D02*
D03*
X00681600D02*
D03*
Y00395400D02*
D03*
X00656200D02*
D03*
X00630800D02*
D03*
X00605400D02*
D03*
X00580000D02*
D03*
X00800000Y00370000D02*
D03*
X00825400D02*
D03*
X00850800D02*
D03*
X00876200D02*
D03*
X00901600D02*
D03*
Y00395400D02*
D03*
X00876200D02*
D03*
X00850800D02*
D03*
X00825400D02*
D03*
X00800000D02*
D03*
X01020000Y00370000D02*
D03*
X01045400D02*
D03*
X01070800D02*
D03*
X01096200D02*
D03*
X01121600D02*
D03*
Y00395400D02*
D03*
X01096200D02*
D03*
X01070800D02*
D03*
X01045400D02*
D03*
X01020000D02*
D03*
D14*
X01115000Y00538400D02*
D03*
X01140400D02*
D03*
Y00563800D02*
D03*
Y00589200D02*
D03*
Y00614600D02*
D03*
Y00640000D02*
D03*
X01115000D02*
D03*
Y00614600D02*
D03*
Y00589200D02*
D03*
Y00563800D02*
D03*
D15*
X00740000Y00520000D02*
D03*
X00760000D02*
D03*
Y00540000D02*
D03*
X00740000D02*
D03*
Y00560000D02*
D03*
Y00580000D02*
D03*
X00760000D02*
D03*
Y00560000D02*
D03*
Y00600000D02*
D03*
X00740000D02*
D03*
Y00620000D02*
D03*
X00760000D02*
D03*
Y00640000D02*
D03*
X00740000D02*
D03*
X00740000Y00660000D02*
D03*
X00760000D02*
D03*
Y00680000D02*
D03*
X00740000D02*
D03*
X00940000Y00520000D02*
D03*
X00960000D02*
D03*
Y00540000D02*
D03*
X00940000D02*
D03*
Y00560000D02*
D03*
Y00580000D02*
D03*
X00960000D02*
D03*
Y00560000D02*
D03*
X00960000Y00600000D02*
D03*
X00940000D02*
D03*
Y00620000D02*
D03*
X00960000D02*
D03*
Y00640000D02*
D03*
Y00660000D02*
D03*
X00940000D02*
D03*
X00940000Y00640000D02*
D03*
X00940000Y00680000D02*
D03*
X00960000D02*
D03*
D16*
X00610000Y00520000D02*
D03*
X00600000Y00610000D02*
D03*
X00740000Y00385000D02*
D03*
X00963000D02*
D03*
X01150000Y00450000D02*
D03*
M02*
